<?xml version="1.0" encoding="UTF-8" standalone="no"?>
<svg
   xmlns:dc="http://purl.org/dc/elements/1.1/"
   xmlns:cc="http://creativecommons.org/ns#"
   xmlns:rdf="http://www.w3.org/1999/02/22-rdf-syntax-ns#"
   xmlns:svg="http://www.w3.org/2000/svg"
   xmlns="http://www.w3.org/2000/svg"
   viewBox="0 0 542.66669 282.66666"
   height="282.66666"
   width="542.66669"
   xml:space="preserve"
   id="svg2"
   version="1.1"><metadata
     id="metadata8"><rdf:RDF><cc:Work
         rdf:about=""><dc:format>image/svg+xml</dc:format><dc:type
           rdf:resource="http://purl.org/dc/dcmitype/StillImage" /></cc:Work></rdf:RDF></metadata><defs
     id="defs6" /><g
     transform="matrix(1.3333333,0,0,-1.3333333,0,282.66667)"
     id="g10"><g
       transform="scale(0.1)"
       id="g12"><path
         id="path14"
         style="fill:#387033;fill-opacity:1;fill-rule:evenodd;stroke:none"
         d="m 1593.67,1035.51 -3.01,18.98 -5.5,26.02 -5,16.01 -6.49,14.5 -7.5,16.48 -8.51,18.01 -8.99,11.01 -1.52,3.48 -3.01,4.49 -7.97,10 -8.51,-9.49 -3.01,-1.48 -2.5,-3.52 -17.5,-12.5 -22.5,-10.98 -12.5,-3.51 -14.49,-3.99 -12.5,-3.51 -16.02,-1.02 -15.98,-0.97 -18,1.99 -17.5,1.99 -20.51,2.5 -19.49,5 -23.01,7.5 -21.49,8.52 -24.49,10 -29.02,13.98 -26.99,17.5 -24.5,16.99 -21.99,16.02 -23.01,18.01 -19.02,18 -17.5,18.99 -17.5,18.51 -0.98,2 -16.52,25 -15.47,25.97 -14.53,25 -10.98,25 -10.5,25 -7,23.01 -7.5,23.01 -3.512,20.51 -6.488,35.5 -3,29.5 v 25 l 13.51,-9.03 16.99,-10.47 21.49,-12.5 28.01,-12.5 34.49,-13 39.49,-14.03 45,-8.98 44.02,-7.5 47.5,-3.01 41.49,-3.01 36.99,-7.5 33.52,-10.97 31.01,-13.01 30,-16.02 24.49,-16.48 22,-20.51 19.49,-21.99 12.5,-17.5 9.49,-16.99 8.01,-16.02 6.01,-17.5 2.5,-4.49 0.98,-5.51 2.5,-7.5 0.51,-1.48 3.51,-23.01 0.51,-22.5 v -6.49 l -1.01,-2.5 -1.02,-9.02 1.02,-1.48 -8.01,10 -0.51,1.48 -0.98,1.52 -1.99,3.48 -8.01,9.49 -11.01,12.5 -13.99,12.5 -13,11.02 -13.01,8.98 -28.48,16.53 -30,11.48 -29.53,11.99 -30,5 -28.48,6.02 -29.02,3.51 -20,5.47 -38.98,10 -16.49,7.03 -26.01,12 -18.01,9.49 -18.01,12.5 18.01,-16.49 28.01,-22.5 16.99,-11.01 16.52,-11.02 14.49,-6.48 13.99,-6.02 46.01,-14.49 43.01,-16.48 33.99,-11.53 21.01,-7.97 24.49,-12.5 23.48,-13 25.51,-18.52 24.02,-19.49 23.48,-25.51 11.99,-13.98 1.02,-1.53 6.01,-6.48 0.98,-1.99 13.51,-19.03 12.5,-21.48 3.01,-4.49 0.98,-5.51 3.01,-4.49 13,-30 9.5,-34.03 -36.49,-21.48" /><path
         id="path16"
         style="fill:#5c8230;fill-opacity:1;fill-rule:evenodd;stroke:none"
         d="m 2103.67,1065.51 16.99,-5.51 23.01,-5 14.49,-0.98 15.98,-1.52 16.52,-1.48 19.5,1.48 11.99,1.99 4.02,0.51 3.99,1.02 12.5,3.47 -4.5,10.51 -0.5,4.02 -1.02,2.5 -3.48,19.5 -0.5,22.5 2.5,25.5 4.49,13.99 4.49,13.51 6.02,13.48 8,14.02 8.99,15.98 11.52,13.52 12.97,16.48 14.02,14.49 15.98,15.51 18.52,16.52 24.49,18.99 24.02,16.48 23.48,13.52 24.49,13.01 24.53,10.97 22.5,8.01 22.97,8.01 23.01,6.01 30,5.47 26.99,3.01 26.52,0.51 26.49,1.01 24.02,-2.03 23.48,-3.47 40.51,-7 32.5,-10.5 25.5,-8.01 21.49,-10.51 -11.99,-7.5 -16.02,-9.49 -20,-14.49 -22.97,-19.03 -24.02,-22.97 -25.98,-29.02 -27.5,-33.01 -24.02,-35.97 -21.49,-38.01 -19.02,-31.49 -20.47,-29.53 -23.01,-24.49 -23.51,-20.98 -24.49,-18.51 -25,-12.5 -26.02,-11.022 -25,-8.468 -1.99,0.5 -18.01,-4.02 -19.49,-1.48 h -16.99 l -17.5,1.48 -3.52,1.52 -5.47,-0.5 -7.03,2.5 -1.99,0.5 -20.98,4.5 -20,8.47 -4.53,3.01 -1.48,0.51 -7.5,6.48 9.49,0.51 1.99,1.02 2.5,1.48 3.52,-0.98 10.5,3.99 16.49,3.98 15.51,6.53 13,7.5 13.99,6.99 25,16.01 21.99,21.49 20,21.99 18.52,21.99 16.01,21.53 15,23.47 11.99,15 12,13.52 11.48,13.01 13.52,12.5 20,15.97 16.99,12.03 16.01,10 -21.01,-8.51 -28.99,-13.52 -16.01,-10 -16.99,-11.48 -11.49,-7.5 -9.02,-10.51 -33.01,-32.5 -30,-28.48 -22.97,-26.52 -17.03,-13.48 -17.97,-15 -22.03,-16.01 -24.49,-12.5 -26.49,-12.5 -46.52,-15.51 -1.48,0.51 -10.51,-2.5 -23.48,-3.52 -23.51,-1.99 -5.51,-0.51 -3.48,1.53 -0.51,-2 -3.51,0.98 -31.49,0.51 -31.99,4.49 -2.5,40.51" /><path
         id="path18"
         style="fill:#387033;fill-opacity:1;fill-rule:evenodd;stroke:none"
         d="m 1711.64,1065.51 25,12.5 35,15 20,12.5 22.5,15 20,17.5 22.5,20 12.03,12.5 5,7.5 17.5,17.5 -17.5,10 -5,5 h -2.5 l -27.03,21.99 -12.5,13.01 -12.5,14.49 -10,15 -10,17.5 -10,20 -7.5,22.5 -7.5,21.99 -5,25 -5,55 v 32.5 l 2.5,32.5 2.5,35 5,37.5 12.5,47.03 12.5,42 15,42.5 35,75 19.53,35 20,32.5 22.5,30 30,35 32.5,31.48 65,55 30,22.5 32.5,20 30,15 26.99,15 53.01,22.5 40,15 37.5,10 -10,-22.5 -7.5,-27.5 -10,-37.5 -7.5,-45 -7.5,-51.48 -5,-62.5 2.5,-67.5 7.5,-65 12.5,-67.5 5,-29.5 5,-30 2.5,-54.53 -2.5,-52.5 -7.5,-47.5 -12.5,-47.5 -15,-42.5 -20,-36.99 -25,-35 v -2.5 l -20.51,-22.5 -22.5,-20 -19.49,-17.5 -25,-15 -5,-4.49 -7.5,-3.01 v -1.99 l -10,-5 h -2.5 l -32.5,-15 -32.5,-10 h -12.5 l -12.5,-2.5 h -2.5 l 15,15 v 2.5 l 5,5 10,11.99 15,22.5 12.5,22.5 20,45 7.5,22.5 5,25 7.5,44.49 2.5,47.5 v 45 l -2.5,42.5 -5,42.5 -2.5,29.53 v 27.5 l 2.5,29.5 2.5,27.5 7.5,40 20,60 -17.5,-32.5 -22.5,-47.5 -10,-27.5 -10,-30 -5,-19.5 -2.5,-22.5 -5,-72.03 -7.5,-65 v -22.5 l -2.5,-30 -5,-35 -7.5,-36.99 -12.5,-40 -15,-40 -22.5,-41.99 -25,-42.5 -15,-22.5 -12.5,-12.5 v -2.5 l -25,-25 -27.03,-27.5 -10,-10 -7.5,-5 -37.5,-26.99 -45,-27.5 -45,44.49" /><path
         id="path20"
         style="fill:#000000;fill-opacity:1;fill-rule:nonzero;stroke:none"
         d="M 114.102,667.66 H 235.199 L 174.41,788.75 Z M 0.0390625,509.84 175.82,850.941 347.379,510.469 318.48,501.719 248.789,639.691 H 99.2617 L 28.1602,501.719 Z M 364.102,501.09 v 346.101 l 27.968,3.75 V 505 Z" /><path
         id="path22"
         style="fill:#000000;fill-opacity:1;fill-rule:nonzero;stroke:none"
         d="m 445.699,501.719 v 247.34 l 27.031,3.281 v -41.559 c 7.7,14.141 17.54,25.16 29.54,32.969 12.07,7.809 25.46,11.719 40.152,11.719 16.558,0 30.937,-4.379 43.129,-13.129 12.179,-8.668 21.48,-21.09 27.969,-37.34 8.429,16.129 19.058,28.59 31.871,37.34 12.808,8.75 26.949,13.129 42.5,13.129 24.257,0 43.05,-8.239 56.41,-24.688 13.429,-16.371 20.148,-39.531 20.148,-69.531 V 505 l -27.027,-3.281 V 647.66 c 0,28 -4.613,49.059 -13.75,63.121 -9.063,14.059 -22.621,21.098 -40.621,21.098 -18.75,0 -34.18,-7 -46.25,-20.938 -12.11,-13.992 -18.129,-31.839 -18.129,-53.601 V 505 L 591.48,501.719 V 647.66 c 0,28.199 -4.492,49.289 -13.429,63.281 -8.992,13.938 -22.5,20.938 -40.629,20.938 -18.551,0 -33.981,-7.109 -46.25,-21.258 C 478.871,696.559 472.73,678.789 472.73,657.34 V 505 Z" /><path
         id="path24"
         style="fill:#000000;fill-opacity:1;fill-rule:nonzero;stroke:none"
         d="m 828.98,627.031 c 0,-27.929 9.93,-51.722 29.848,-71.41 19.883,-19.68 43.793,-29.531 71.723,-29.531 27.89,0 51.719,9.851 71.399,29.531 19.69,19.688 29.53,43.481 29.53,71.41 0,27.891 -9.84,51.719 -29.53,71.41 -19.68,19.68 -43.509,29.528 -71.399,29.528 -27.93,0 -51.84,-9.848 -71.723,-29.528 C 838.91,678.75 828.98,654.922 828.98,627.031 Z m -27.96,0 c 0,36.25 12.339,66.489 37.031,90.778 24.758,24.382 55.621,36.57 92.5,36.57 36.64,0 67.258,-12.188 91.869,-36.57 24.69,-24.289 37.03,-54.528 37.03,-90.778 0,-36.371 -12.34,-66.801 -37.03,-91.25 -24.611,-24.492 -55.229,-36.722 -91.869,-36.722 -36.801,0 -67.582,12.23 -92.352,36.722 -24.801,24.571 -37.179,55 -37.179,91.25 z" /><path
         id="path26"
         style="fill:#000000;fill-opacity:1;fill-rule:nonzero;stroke:none"
         d="m 1097.46,501.719 v 247.34 l 27.5,3.281 v -41.559 c 10.39,15 22.23,26.168 35.47,33.598 13.2,7.383 28.05,11.09 44.53,11.09 26.95,0 47.89,-8.239 62.81,-24.688 14.89,-16.371 22.35,-39.531 22.35,-69.531 V 505 l -26.88,-3.281 V 647.66 c 0,28.199 -5.47,49.371 -16.4,63.43 -10.86,14.14 -27.15,21.25 -48.91,21.25 -19.61,0 -36.68,-7.34 -51.25,-22.031 -14.49,-14.61 -21.72,-32.258 -21.72,-52.969 V 505 Z" /><path
         id="path28"
         style="fill:#000000;fill-opacity:1;fill-rule:nonzero;stroke:none"
         d="m 1355.35,627.031 c 0,-27.929 9.92,-51.722 29.85,-71.41 19.88,-19.68 43.78,-29.531 71.71,-29.531 27.89,0 51.72,9.851 71.41,29.531 19.69,19.688 29.53,43.481 29.53,71.41 0,27.891 -9.84,51.719 -29.53,71.41 -19.69,19.68 -43.52,29.528 -71.41,29.528 -27.93,0 -51.83,-9.848 -71.71,-29.528 -19.93,-19.691 -29.85,-43.519 -29.85,-71.41 z m 202.5,-73.91 c -12.81,-17.609 -27.81,-31.051 -45,-40.312 -17.19,-9.137 -35.86,-13.75 -55.94,-13.75 -36.79,0 -67.57,12.23 -92.34,36.722 -24.8,24.571 -37.19,55 -37.19,91.25 0,36.25 12.35,66.489 37.03,90.778 24.77,24.382 55.63,36.57 92.5,36.57 21.02,0 40.08,-4.649 57.19,-13.91 17.19,-9.297 31.76,-22.77 43.75,-40.469 v 147.66 l 26.72,3.281 V 505 l -26.72,-3.281 z" /><path
         id="path30"
         style="fill:#000000;fill-opacity:1;fill-rule:nonzero;stroke:none"
         d="m 1995.9,510.941 c -11.06,-4.613 -21.95,-7.89 -32.66,-10 -10.74,-2.191 -21.72,-3.281 -32.97,-3.281 -20.86,0 -40.43,3.039 -58.75,9.059 -18.24,6.133 -34.92,15.191 -50,27.191 -21.05,16.641 -37.61,37.34 -49.68,62.031 -12.11,24.68 -18.13,50.348 -18.13,77.028 0,26.761 6.02,52.422 18.13,77.031 12.07,24.691 28.63,45.23 49.68,61.719 15.63,12.07 32.5,21.133 50.63,27.191 18.2,6.129 37.73,9.211 58.59,9.211 10.94,0 21.6,-1.012 32.03,-2.961 10.39,-2 20.98,-5 31.72,-9.07 l 6.41,-37.031 c -10.31,6.882 -21.41,12.031 -33.28,15.472 -11.8,3.438 -24.38,5.16 -37.82,5.16 -40.93,0 -75.46,-14.031 -103.59,-42.031 -28.05,-28.051 -42.03,-62.93 -42.03,-104.691 0,-41.797 13.94,-76.719 41.87,-104.848 28.01,-28.043 62.43,-42.031 103.29,-42.031 11.95,0 23.75,1.609 35.31,4.851 11.56,3.321 23.79,8.36 36.72,15.149 z" /><path
         id="path32"
         style="fill:#000000;fill-opacity:1;fill-rule:nonzero;stroke:none"
         d="m 2058.75,627.031 c 0,-27.929 9.92,-51.722 29.84,-71.41 19.89,-19.68 43.79,-29.531 71.72,-29.531 27.89,0 51.72,9.851 71.41,29.531 19.69,19.688 29.53,43.481 29.53,71.41 0,27.891 -9.84,51.719 -29.53,71.41 -19.69,19.68 -43.52,29.528 -71.41,29.528 -27.93,0 -51.83,-9.848 -71.72,-29.528 -19.92,-19.691 -29.84,-43.519 -29.84,-71.41 z m -27.97,0 c 0,36.25 12.34,66.489 37.03,90.778 24.77,24.382 55.63,36.57 92.5,36.57 36.64,0 67.27,-12.188 91.88,-36.57 24.69,-24.289 37.03,-54.528 37.03,-90.778 0,-36.371 -12.34,-66.801 -37.03,-91.25 -24.61,-24.492 -55.24,-36.722 -91.88,-36.722 -36.79,0 -67.58,12.23 -92.34,36.722 -24.81,24.571 -37.19,55 -37.19,91.25 z" /><path
         id="path34"
         style="fill:#000000;fill-opacity:1;fill-rule:nonzero;stroke:none"
         d="m 2491.45,543.281 c -10.24,-15 -22,-26.211 -35.32,-33.59 -13.24,-7.39 -28.04,-11.101 -44.37,-11.101 -27.19,0 -48.36,8.211 -63.44,24.691 -15,16.559 -22.5,39.731 -22.5,69.528 v 156.25 l 27.5,3.281 V 606.41 c 0,-28.359 5.35,-49.531 16.09,-63.601 10.82,-14.059 27.04,-21.09 48.6,-21.09 19.69,0 36.79,7.261 51.4,21.871 14.69,14.57 22.04,32.23 22.04,52.969 v 152.5 l 27.5,3.281 V 505 l -27.5,-3.281 z" /><path
         id="path36"
         style="fill:#000000;fill-opacity:1;fill-rule:nonzero;stroke:none"
         d="m 2570.12,501.719 v 247.34 l 27.18,3.281 v -52.809 c 9.89,19.141 21.96,33.481 36.25,42.969 14.38,9.57 30.94,14.379 49.69,14.379 h 6.72 l -11.25,-27.039 c -27.73,-2.731 -48.24,-14.84 -61.56,-36.399 -13.24,-21.492 -19.85,-53.562 -19.85,-96.25 V 505 Z" /><path
         id="path38"
         style="fill:#000000;fill-opacity:1;fill-rule:nonzero;stroke:none"
         d="m 2837.66,505 c -4.81,-1.129 -9.46,-1.949 -13.91,-2.5 -4.37,-0.512 -8.44,-0.781 -12.19,-0.781 -24.61,0 -41.99,6.801 -52.18,20.472 -10.24,13.75 -15.32,38.899 -15.32,75.469 V 722.5 h -35.47 l 7.97,26.559 h 27.5 v 57.82 l 27.19,16.562 v -74.382 h 63.91 V 722.5 h -63.91 V 594.219 c 0,-26.25 3.05,-43.707 9.22,-52.34 6.13,-8.68 16.95,-12.969 32.5,-12.969 3.32,0 7.03,0.231 11.09,0.781 4.06,0.618 8.6,1.399 13.6,2.34 z" /><path
         id="path40"
         style="fill:#000000;fill-opacity:1;fill-rule:nonzero;stroke:none"
         d="m 2971.8,504.531 69.68,347.348 113.6,-279.688 114.06,279.688 69.22,-347.348 -28.91,-6.41 -50,254.688 -104.37,-254.688 -104.38,254.688 -50,-254.688 z" /><path
         id="path42"
         style="fill:#000000;fill-opacity:1;fill-rule:nonzero;stroke:none"
         d="m 3380.43,627.031 c 0,-27.929 9.92,-51.722 29.84,-71.41 19.89,-19.68 43.79,-29.531 71.72,-29.531 27.89,0 51.72,9.851 71.41,29.531 19.69,19.688 29.53,43.481 29.53,71.41 0,27.891 -9.84,51.719 -29.53,71.41 -19.69,19.68 -43.52,29.528 -71.41,29.528 -27.93,0 -51.83,-9.848 -71.72,-29.528 -19.92,-19.691 -29.84,-43.519 -29.84,-71.41 z m -27.97,0 c 0,36.25 12.34,66.489 37.03,90.778 24.77,24.382 55.63,36.57 92.5,36.57 36.64,0 67.27,-12.188 91.88,-36.57 24.68,-24.289 37.03,-54.528 37.03,-90.778 0,-36.371 -12.35,-66.801 -37.03,-91.25 -24.61,-24.492 -55.24,-36.722 -91.88,-36.722 -36.79,0 -67.58,12.23 -92.34,36.722 -24.81,24.571 -37.19,55 -37.19,91.25 z" /><path
         id="path44"
         style="fill:#000000;fill-opacity:1;fill-rule:nonzero;stroke:none"
         d="m 3755,505 c -4.8,-1.129 -9.45,-1.949 -13.91,-2.5 -4.37,-0.512 -8.43,-0.781 -12.18,-0.781 -24.61,0 -42,6.801 -52.19,20.472 -10.24,13.75 -15.31,38.899 -15.31,75.469 V 722.5 h -35.47 l 7.97,26.559 h 27.5 v 57.82 l 27.18,16.562 v -74.382 h 63.91 V 722.5 h -63.91 V 594.219 c 0,-26.25 3.05,-43.707 9.22,-52.34 6.14,-8.68 16.96,-12.969 32.5,-12.969 3.32,0 7.03,0.231 11.1,0.781 4.06,0.618 8.59,1.399 13.59,2.34 z" /><path
         id="path46"
         style="fill:#000000;fill-opacity:1;fill-rule:nonzero;stroke:none"
         d="m 3799.73,605.941 161.25,95.938 c -6.88,8.43 -15.59,14.762 -26.1,19.062 -10.43,4.368 -22.3,6.559 -35.62,6.559 -28.13,0 -51.96,-9.648 -71.41,-28.91 -19.37,-19.289 -29.06,-42.969 -29.06,-71.09 0,-4.488 0.04,-8.398 0.16,-11.719 0.19,-3.242 0.46,-6.519 0.78,-9.84 z m 196.4,-72.031 c -16.17,-12 -32.15,-20.789 -47.97,-26.41 -15.74,-5.621 -32.03,-8.441 -48.9,-8.441 -37.19,0 -68.09,12.23 -92.66,36.722 -24.61,24.449 -36.87,54.879 -36.87,91.25 0,36.328 12.34,66.641 37.03,90.938 24.76,24.261 55.62,36.41 92.5,36.41 23.2,0 43.59,-5.078 61.09,-15.16 17.5,-10 31.1,-24.528 40.78,-43.598 L 3809.41,582.5 c 9.14,-17.5 21.57,-31.051 37.19,-40.621 15.63,-9.609 33.17,-14.379 52.66,-14.379 15.39,0 30.66,3.199 45.78,9.691 15.19,6.438 32.23,17.071 51.09,31.868 z" /><path
         id="path48"
         style="fill:#000000;fill-opacity:1;fill-rule:nonzero;stroke:none"
         d="m 4037.19,501.09 v 346.101 l 27.97,3.75 V 505 Z" /><path
         id="path50"
         style="fill:#000000;fill-opacity:1;fill-rule:nonzero;stroke:none"
         d="m 1286.88,122.27 h 86.56 L 1330,208.672 Z M 1205.47,9.44922 1331.09,253.199 1453.59,9.92188 1432.81,3.67188 1383.12,102.27 H 1276.41 L 1225.62,3.67188 Z m 260,-6.25 V 250.391 l 20,2.808 V 6.01953 Z" /><path
         id="path52"
         style="fill:#000000;fill-opacity:1;fill-rule:nonzero;stroke:none"
         d="m 1537.15,78.1992 115.15,68.4418 c -4.92,6.019 -11.09,10.55 -18.59,13.589 -7.42,3.129 -15.9,4.692 -25.47,4.692 -20.12,0 -37.11,-6.871 -50.94,-20.621 -13.86,-13.75 -20.78,-30.711 -20.78,-50.7815 0,-3.25 0.04,-6.0195 0.16,-8.289 0.08,-2.3008 0.23,-4.6407 0.47,-7.0313 z m 140.31,-51.5586 c -11.56,-8.5508 -22.97,-14.8398 -34.22,-18.91013 -11.25,-3.94141 -22.93,-5.92969 -35,-5.92969 -26.56,0 -48.67,8.66802 -66.25,26.08982 -17.5,17.5 -26.25,39.2578 -26.25,65.3086 0,25.9418 8.79,47.5388 26.41,64.8518 17.69,17.379 39.73,26.09 66.09,26.09 16.64,0 31.17,-3.59 43.6,-10.782 12.5,-7.187 22.22,-17.578 29.21,-31.089 L 1544.18,61.332 c 6.44,-12.5 15.23,-22.1914 26.41,-29.0625 11.13,-6.8007 23.67,-10.1601 37.65,-10.1601 11.02,0 21.96,2.2695 32.81,6.8711 10.83,4.5703 22.97,12.1914 36.41,22.8203 z" /><path
         id="path54"
         style="fill:#000000;fill-opacity:1;fill-rule:nonzero;stroke:none"
         d="m 1686.76,13.3594 62.5,83.2812 -63.13,78.1294 18.91,9.371 57.03,-72.813 55.63,72.813 18.59,-7.813 -61.56,-79.9999 65.78,-82.9687 -17.5,-10.46877 -61.72,79.05857 -58.44,-79.05857 z" /><path
         id="path56"
         style="fill:#000000;fill-opacity:1;fill-rule:nonzero;stroke:none"
         d="m 1866.25,65.8594 c 0,-12.9297 4.37,-23.711 13.13,-32.3399 8.74,-8.5586 19.76,-12.8203 33.12,-12.8203 13.2,0 23.91,4.1406 32.03,12.5 8.2,8.3203 12.35,19.2227 12.35,32.6602 0,13.3203 -4.15,24.1406 -12.35,32.5 -8.12,8.4416 -18.71,12.6606 -31.72,12.6606 -13.55,0 -24.69,-4.301 -33.43,-12.8208 -8.76,-8.5508 -13.13,-19.3281 -13.13,-32.3398 z m 90.63,-42.3399 c -6.26,-7.1875 -13.36,-12.6211 -21.26,-16.24997 -7.81,-3.64062 -16.36,-5.46875 -25.62,-5.46875 -17.73,0 -32.81,6.16797 -45.31,18.58982 -12.5,12.5 -18.75,27.6602 -18.75,45.4688 0,17.582 6.25,32.6601 18.75,45.1606 12.58,12.57 27.69,18.902 45.31,18.902 8.95,0 17.42,-1.801 25.47,-5.313 8.12,-3.437 15.23,-8.437 21.41,-15 v 22.032 c 0,12.07 -3.09,20.98 -9.22,26.718 -6.06,5.7 -15.47,8.59 -28.28,8.59 -7.5,0 -15.63,-1.09 -24.38,-3.277 -8.75,-2.113 -18.83,-5.551 -30.16,-10.313 l 7.82,22.661 c 8.51,3 16.87,5.23 25,6.71 8.2,1.45 16.13,2.192 23.75,2.192 19.06,0 33,-4.453 41.87,-13.281 8.83,-8.871 13.28,-22.891 13.28,-42.032 V 6.01953 l -19.68,-4.21875 z" /><path
         id="path58"
         style="fill:#000000;fill-opacity:1;fill-rule:nonzero;stroke:none"
         d="M 2011.25,3.67188 V 180.391 l 19.53,2.339 v -29.679 c 7.38,10.621 15.82,18.59 25.31,23.898 9.46,5.321 20.08,7.973 31.88,7.973 19.26,0 34.22,-5.902 44.84,-17.652 10.63,-11.68 15.94,-28.25 15.94,-49.692 V 6.01953 L 2129.69,3.67188 V 107.891 c 0,20.078 -3.91,35.199 -11.72,45.308 -7.81,10.082 -19.49,15.16 -35,15.16 -14.06,0 -26.33,-5.238 -36.72,-15.629 -10.31,-10.429 -15.47,-23.039 -15.47,-37.808 V 6.01953 Z" /><path
         id="path60"
         style="fill:#000000;fill-opacity:1;fill-rule:nonzero;stroke:none"
         d="m 2195.39,93.1992 c 0,-20 7.07,-37.0273 21.25,-51.0898 14.14,-14.0586 31.25,-21.0899 51.25,-21.0899 19.88,0 36.88,7.0313 50.94,21.0899 14.06,14.0625 21.09,31.0898 21.09,51.0898 0,19.8908 -7.03,36.8788 -21.09,50.9418 -14.06,14.058 -31.06,21.089 -50.94,21.089 -20,0 -37.11,-7.031 -51.25,-21.089 -14.18,-14.063 -21.25,-31.051 -21.25,-50.9418 z m 144.53,-52.8086 c -9.06,-12.5 -19.76,-22.1093 -32.03,-28.75 -12.3,-6.55857 -25.62,-9.83982 -40,-9.83982 -26.25,0 -48.24,8.75002 -65.94,26.25002 -17.73,17.5703 -26.56,39.289 -26.56,65.1484 0,25.8208 8.79,47.4218 26.41,64.8518 17.69,17.379 39.72,26.09 66.09,26.09 15,0 28.59,-3.36 40.78,-10 12.27,-6.563 22.7,-16.211 31.25,-28.911 v 105.469 l 19.22,2.5 V 6.01953 l -19.22,-2.34765 z" /><path
         id="path62"
         style="fill:#000000;fill-opacity:1;fill-rule:nonzero;stroke:none"
         d="M 2395.16,3.67188 V 180.391 l 19.53,2.339 v -37.808 c 7.07,13.629 15.7,23.906 25.93,30.777 10.2,6.879 22.04,10.321 35.47,10.321 h 4.69 l -7.97,-19.379 c -19.92,-1.871 -34.61,-10.551 -44.06,-25.942 -9.37,-15.429 -14.06,-38.398 -14.06,-68.8982 V 6.01953 Z" /><path
         id="path64"
         style="fill:#000000;fill-opacity:1;fill-rule:nonzero;stroke:none"
         d="m 2500.62,65.8594 c 0,-12.9297 4.38,-23.711 13.13,-32.3399 8.75,-8.5586 19.77,-12.8203 33.13,-12.8203 13.2,0 23.9,4.1406 32.03,12.5 8.2,8.3203 12.34,19.2227 12.34,32.6602 0,13.3203 -4.14,24.1406 -12.34,32.5 -8.13,8.4416 -18.71,12.6606 -31.72,12.6606 -13.56,0 -24.69,-4.301 -33.44,-12.8208 -8.75,-8.5508 -13.13,-19.3281 -13.13,-32.3398 z m 90.63,-42.3399 C 2585,16.332 2577.89,10.8984 2570,7.26953 c -7.81,-3.64062 -16.37,-5.46875 -25.62,-5.46875 -17.74,0 -32.82,6.16797 -45.32,18.58982 -12.5,12.5 -18.75,27.6602 -18.75,45.4688 0,17.582 6.25,32.6601 18.75,45.1606 12.58,12.57 27.7,18.902 45.32,18.902 8.94,0 17.42,-1.801 25.46,-5.313 8.13,-3.437 15.24,-8.437 21.41,-15 v 22.032 c 0,12.07 -3.09,20.98 -9.22,26.718 -6.05,5.7 -15.47,8.59 -28.28,8.59 -7.5,0 -15.63,-1.09 -24.37,-3.277 -8.76,-2.113 -18.83,-5.551 -30.16,-10.313 l 7.81,22.661 c 8.52,3 16.88,5.23 25,6.71 8.2,1.45 16.13,2.192 23.75,2.192 19.06,0 33.01,-4.453 41.88,-13.281 8.82,-8.871 13.28,-22.891 13.28,-42.032 V 6.01953 l -19.69,-4.21875 z" /></g></g></svg>